<svg width="102" height="102" viewBox="0 0 102 102" fill="none" xmlns="http://www.w3.org/2000/svg">
<circle cx="51" cy="51" r="51" fill="#8290CD"/>
<path d="M49.256 24.145C49.7335 23.9536 50.2665 23.9536 50.744 24.145L74.616 33.693L66 37.1373L41.384 27.2933L49.256 24.145ZM35 29.849L59.616 39.693L50 43.537L25.384 33.693L35 29.849ZM22 36.649L48 47.049V78.737L22 68.337V36.649ZM52 78.741V47.045L62 42.6635L67 40.6643L78 36.649V68.341L52 78.741ZM52.228 20.429C50.7977 19.857 49.2023 19.857 47.772 20.429L19.256 31.837C18.8853 31.9856 18.5675 32.2418 18.3436 32.5726C18.1198 32.9034 18.0001 33.2936 18 33.693V68.341C18.0005 69.1403 18.2405 69.9211 18.6889 70.5827C19.1374 71.2444 19.7738 71.7565 20.516 72.053L49.256 83.549C49.7335 83.7404 50.2665 83.7404 50.744 83.549L79.48 72.053C80.223 71.7571 80.8602 71.2453 81.3094 70.5836C81.7586 69.9219 81.9992 69.1408 82 68.341V33.693C81.9999 33.2936 81.8802 32.9034 81.6564 32.5726C81.4325 32.2418 81.1147 31.9856 80.744 31.837L52.228 20.429Z" fill="white"/>
<path d="M67 40.6643V54L62 56V42.6635L67 40.6643Z" fill="white"/>
</svg>
